<?xml version="1.0" encoding="UTF-8" standalone="no"?>
<!DOCTYPE svg PUBLIC "-//W3C//DTD SVG 1.1//EN"
 "http://www.w3.org/Graphics/SVG/1.1/DTD/svg11.dtd">
<!-- Generated by graphviz version 2.44.1 (20200629.0846)
 -->
<!-- Title: DEPS Pages: 1 -->
<svg width="1495pt" height="768pt"
 viewBox="0.00 0.00 1495.23 767.66" xmlns="http://www.w3.org/2000/svg" xmlns:xlink="http://www.w3.org/1999/xlink">
<g id="graph0" class="graph" transform="scale(1 1) rotate(0) translate(4 763.66)">
<title>DEPS</title>
<polygon fill="white" stroke="transparent" points="-4,4 -4,-763.66 1491.23,-763.66 1491.23,4 -4,4"/>
<!-- irox_tools -->
<g id="node1" class="node">
<title>irox_tools</title>
<ellipse fill="none" stroke="black" cx="696" cy="-172.76" rx="61.54" ry="45.01"/>
<text text-anchor="start" x="668.11" y="-187.16" font-family="Times New Roman,serif" font-weight="bold" font-size="14.00">irox_tools</text>
<polygon fill="#555555" stroke="transparent" points="661,-162.76 661,-180.76 691,-180.76 691,-162.76 661,-162.76"/>
<text text-anchor="start" x="672" y="-167.96" font-family="sans-serif" font-size="12.00" fill="#ffffff"> std</text>
<polygon fill="#007ec6" stroke="transparent" points="691,-162.76 691,-180.76 732,-180.76 732,-162.76 691,-162.76"/>
<text text-anchor="start" x="693" y="-167.96" font-family="sans-serif" font-size="12.00" fill="#ffffff">feature</text>
<polygon fill="#555555" stroke="transparent" points="661,-144.76 661,-162.76 691,-162.76 691,-144.76 661,-144.76"/>
<text text-anchor="start" x="663" y="-149.96" font-family="sans-serif" font-size="12.00" fill="#ffffff">alloc</text>
<polygon fill="#007ec6" stroke="transparent" points="691,-144.76 691,-162.76 732,-162.76 732,-144.76 691,-144.76"/>
<text text-anchor="start" x="693" y="-149.96" font-family="sans-serif" font-size="12.00" fill="#ffffff">feature</text>
</g>
<!-- irox_bits -->
<g id="node2" class="node">
<title>irox_bits</title>
<ellipse fill="none" stroke="black" cx="1072" cy="-45.25" rx="61.54" ry="45.01"/>
<text text-anchor="start" x="1047.61" y="-59.65" font-family="Times New Roman,serif" font-weight="bold" font-size="14.00">irox_bits</text>
<polygon fill="#555555" stroke="transparent" points="1037,-35.25 1037,-53.25 1067,-53.25 1067,-35.25 1037,-35.25"/>
<text text-anchor="start" x="1048" y="-40.45" font-family="sans-serif" font-size="12.00" fill="#ffffff"> std</text>
<polygon fill="#007ec6" stroke="transparent" points="1067,-35.25 1067,-53.25 1108,-53.25 1108,-35.25 1067,-35.25"/>
<text text-anchor="start" x="1069" y="-40.45" font-family="sans-serif" font-size="12.00" fill="#ffffff">feature</text>
<polygon fill="#555555" stroke="transparent" points="1037,-17.25 1037,-35.25 1067,-35.25 1067,-17.25 1037,-17.25"/>
<text text-anchor="start" x="1039" y="-22.45" font-family="sans-serif" font-size="12.00" fill="#ffffff">alloc</text>
<polygon fill="#007ec6" stroke="transparent" points="1067,-17.25 1067,-35.25 1108,-35.25 1108,-17.25 1067,-17.25"/>
<text text-anchor="start" x="1069" y="-22.45" font-family="sans-serif" font-size="12.00" fill="#ffffff">feature</text>
</g>
<!-- irox_tools&#45;&gt;irox_bits -->
<g id="edge1" class="edge">
<title>irox_tools&#45;&gt;irox_bits</title>
<path fill="none" stroke="black" d="M751.88,-153.11C819.88,-130.41 934.49,-92.16 1006.55,-68.1"/>
<polygon fill="black" stroke="black" points="1008.04,-71.29 1016.42,-64.81 1005.83,-64.65 1008.04,-71.29"/>
</g>
<!-- irox_units -->
<g id="node3" class="node">
<title>irox_units</title>
<ellipse fill="none" stroke="black" cx="420" cy="-316.07" rx="61.54" ry="45.01"/>
<text text-anchor="start" x="392.11" y="-330.47" font-family="Times New Roman,serif" font-weight="bold" font-size="14.00">irox_units</text>
<polygon fill="#555555" stroke="transparent" points="385,-306.07 385,-324.07 415,-324.07 415,-306.07 385,-306.07"/>
<text text-anchor="start" x="396" y="-311.27" font-family="sans-serif" font-size="12.00" fill="#ffffff"> std</text>
<polygon fill="#007ec6" stroke="transparent" points="415,-306.07 415,-324.07 456,-324.07 456,-306.07 415,-306.07"/>
<text text-anchor="start" x="417" y="-311.27" font-family="sans-serif" font-size="12.00" fill="#ffffff">feature</text>
<polygon fill="#555555" stroke="transparent" points="385,-288.07 385,-306.07 415,-306.07 415,-288.07 385,-288.07"/>
<text text-anchor="start" x="387" y="-293.27" font-family="sans-serif" font-size="12.00" fill="#ffffff">alloc</text>
<polygon fill="#007ec6" stroke="transparent" points="415,-288.07 415,-306.07 456,-306.07 456,-288.07 415,-288.07"/>
<text text-anchor="start" x="417" y="-293.27" font-family="sans-serif" font-size="12.00" fill="#ffffff">feature</text>
</g>
<!-- irox_units&#45;&gt;irox_tools -->
<g id="edge2" class="edge">
<title>irox_units&#45;&gt;irox_tools</title>
<path fill="none" stroke="black" d="M465.45,-285.21C473.53,-280.23 481.93,-275.25 490,-270.82 537.36,-244.82 592.86,-218.92 634.32,-200.42"/>
<polygon fill="black" stroke="black" points="635.75,-203.61 643.47,-196.36 632.91,-197.22 635.75,-203.61"/>
</g>
<!-- irox_fixedmath -->
<g id="node4" class="node">
<title>irox_fixedmath</title>
<ellipse fill="none" stroke="black" cx="574" cy="-316.07" rx="74.91" ry="45.01"/>
<text text-anchor="start" x="530.84" y="-330.47" font-family="Times New Roman,serif" font-weight="bold" font-size="14.00">irox_fixedmath</text>
<polygon fill="#555555" stroke="transparent" points="529,-306.07 529,-324.07 588,-324.07 588,-306.07 529,-306.07"/>
<text text-anchor="start" x="551" y="-311.27" font-family="sans-serif" font-size="12.00" fill="#ffffff"> no_std</text>
<polygon fill="#97ca00" stroke="transparent" points="588,-306.07 588,-324.07 619,-324.07 619,-306.07 588,-306.07"/>
<text text-anchor="start" x="590" y="-311.27" font-family="sans-serif" font-size="12.00" fill="#ffffff">yes</text>
<polygon fill="#555555" stroke="transparent" points="529,-288.07 529,-306.07 588,-306.07 588,-288.07 529,-288.07"/>
<text text-anchor="start" x="541.68" y="-293.27" font-family="sans-serif" font-size="12.00" fill="#ffffff"> no_alloc</text>
<polygon fill="#97ca00" stroke="transparent" points="588,-288.07 588,-306.07 619,-306.07 619,-288.07 588,-288.07"/>
<text text-anchor="start" x="590" y="-293.27" font-family="sans-serif" font-size="12.00" fill="#ffffff">yes</text>
</g>
<!-- irox_fixedmath&#45;&gt;irox_tools -->
<g id="edge3" class="edge">
<title>irox_fixedmath&#45;&gt;irox_tools</title>
<path fill="none" stroke="black" d="M607.98,-275.71C623.16,-258.13 641.13,-237.32 656.87,-219.09"/>
<polygon fill="black" stroke="black" points="659.57,-221.31 663.46,-211.46 654.27,-216.74 659.57,-221.31"/>
</g>
<!-- irox_time -->
<g id="node5" class="node">
<title>irox_time</title>
<ellipse fill="none" stroke="black" cx="618" cy="-443.58" rx="68.68" ry="45.01"/>
<text text-anchor="start" x="591.28" y="-457.98" font-family="Times New Roman,serif" font-weight="bold" font-size="14.00">irox_time</text>
<polygon fill="#555555" stroke="transparent" points="578,-433.58 578,-451.58 609,-451.58 609,-433.58 578,-433.58"/>
<text text-anchor="start" x="590" y="-438.78" font-family="sans-serif" font-size="12.00" fill="#ffffff"> std</text>
<polygon fill="#007ec6" stroke="transparent" points="609,-433.58 609,-451.58 659,-451.58 659,-433.58 609,-433.58"/>
<text text-anchor="start" x="611" y="-438.78" font-family="sans-serif" font-size="12.00" fill="#ffffff">feature</text>
<polygon fill="#555555" stroke="transparent" points="578,-415.58 578,-433.58 609,-433.58 609,-415.58 578,-415.58"/>
<text text-anchor="start" x="580.68" y="-420.78" font-family="sans-serif" font-size="12.00" fill="#ffffff"> alloc</text>
<polygon fill="#9f9f9f" stroke="transparent" points="609,-415.58 609,-433.58 659,-433.58 659,-415.58 609,-415.58"/>
<text text-anchor="start" x="611" y="-420.78" font-family="sans-serif" font-size="12.00" fill="#ffffff">required</text>
</g>
<!-- irox_time&#45;&gt;irox_tools -->
<g id="edge4" class="edge">
<title>irox_time&#45;&gt;irox_tools</title>
<path fill="none" stroke="black" d="M641.09,-400.87C647.27,-388.43 653.48,-374.57 658,-361.33 672.85,-317.78 682.75,-266.46 688.72,-228.52"/>
<polygon fill="black" stroke="black" points="692.25,-228.61 690.3,-218.19 685.33,-227.55 692.25,-228.61"/>
</g>
<!-- irox_time&#45;&gt;irox_units -->
<g id="edge5" class="edge">
<title>irox_time&#45;&gt;irox_units</title>
<path fill="none" stroke="black" d="M576.45,-407.43C563.65,-397.58 549.18,-387.37 535,-379.33 516.26,-368.7 509.18,-371.13 490,-361.33 484.67,-358.61 479.22,-355.6 473.83,-352.47"/>
<polygon fill="black" stroke="black" points="475.24,-349.23 464.85,-347.12 471.65,-355.25 475.24,-349.23"/>
</g>
<!-- irox_time&#45;&gt;irox_fixedmath -->
<g id="edge6" class="edge">
<title>irox_time&#45;&gt;irox_fixedmath</title>
<path fill="none" stroke="black" d="M602.86,-399.39C599.58,-390.03 596.07,-380.03 592.67,-370.33"/>
<polygon fill="black" stroke="black" points="595.93,-369.05 589.32,-360.77 589.33,-371.37 595.93,-369.05"/>
</g>
<!-- irox_enums -->
<g id="node6" class="node">
<title>irox_enums</title>
<ellipse fill="none" stroke="black" cx="817" cy="-316.07" rx="74.49" ry="45.01"/>
<text text-anchor="start" x="784.45" y="-330.47" font-family="Times New Roman,serif" font-weight="bold" font-size="14.00">irox_enums</text>
<polygon fill="#555555" stroke="transparent" points="773,-306.07 773,-324.07 812,-324.07 812,-306.07 773,-306.07"/>
<text text-anchor="start" x="775" y="-311.27" font-family="sans-serif" font-size="12.00" fill="#ffffff"> no_std</text>
<polygon fill="#97ca00" stroke="transparent" points="812,-306.07 812,-324.07 862,-324.07 862,-306.07 812,-306.07"/>
<text text-anchor="start" x="814" y="-311.27" font-family="sans-serif" font-size="12.00" fill="#ffffff">yes</text>
<polygon fill="#555555" stroke="transparent" points="773,-288.07 773,-306.07 812,-306.07 812,-288.07 773,-288.07"/>
<text text-anchor="start" x="783.68" y="-293.27" font-family="sans-serif" font-size="12.00" fill="#ffffff"> alloc</text>
<polygon fill="#9f9f9f" stroke="transparent" points="812,-288.07 812,-306.07 862,-306.07 862,-288.07 812,-288.07"/>
<text text-anchor="start" x="814" y="-293.27" font-family="sans-serif" font-size="12.00" fill="#ffffff">required</text>
</g>
<!-- irox_time&#45;&gt;irox_enums -->
<g id="edge7" class="edge">
<title>irox_time&#45;&gt;irox_enums</title>
<path fill="none" stroke="black" d="M666.94,-411.72C694.26,-394.49 728.51,-372.88 757.39,-354.67"/>
<polygon fill="black" stroke="black" points="759.58,-357.43 766.17,-349.13 755.85,-351.51 759.58,-357.43"/>
</g>
<!-- irox_carto -->
<g id="node7" class="node">
<title>irox_carto</title>
<ellipse fill="none" stroke="black" cx="715" cy="-586.89" rx="68.68" ry="45.01"/>
<text text-anchor="start" x="686.73" y="-601.29" font-family="Times New Roman,serif" font-weight="bold" font-size="14.00">irox_carto</text>
<polygon fill="#555555" stroke="transparent" points="675,-576.89 675,-594.89 706,-594.89 706,-576.89 675,-576.89"/>
<text text-anchor="start" x="687" y="-582.09" font-family="sans-serif" font-size="12.00" fill="#ffffff"> std</text>
<polygon fill="#007ec6" stroke="transparent" points="706,-576.89 706,-594.89 756,-594.89 756,-576.89 706,-576.89"/>
<text text-anchor="start" x="708" y="-582.09" font-family="sans-serif" font-size="12.00" fill="#ffffff">feature</text>
<polygon fill="#555555" stroke="transparent" points="675,-558.89 675,-576.89 706,-576.89 706,-558.89 675,-558.89"/>
<text text-anchor="start" x="677.68" y="-564.09" font-family="sans-serif" font-size="12.00" fill="#ffffff"> alloc</text>
<polygon fill="#9f9f9f" stroke="transparent" points="706,-558.89 706,-576.89 756,-576.89 756,-558.89 706,-558.89"/>
<text text-anchor="start" x="708" y="-564.09" font-family="sans-serif" font-size="12.00" fill="#ffffff">required</text>
</g>
<!-- irox_carto&#45;&gt;irox_tools -->
<g id="edge8" class="edge">
<title>irox_carto&#45;&gt;irox_tools</title>
<path fill="none" stroke="black" d="M713.4,-541.42C710.93,-474.95 705.88,-345.75 700,-236.02 699.86,-233.46 699.72,-230.85 699.57,-228.21"/>
<polygon fill="black" stroke="black" points="703.04,-227.74 698.96,-217.97 696.06,-228.16 703.04,-227.74"/>
</g>
<!-- irox_carto&#45;&gt;irox_units -->
<g id="edge11" class="edge">
<title>irox_carto&#45;&gt;irox_units</title>
<path fill="none" stroke="black" d="M657.21,-562.01C620.9,-545.14 574.58,-520.01 540,-488.84 501.39,-454.03 468.5,-404.57 446.97,-367.65"/>
<polygon fill="black" stroke="black" points="449.76,-365.48 441.74,-358.56 443.69,-368.97 449.76,-365.48"/>
</g>
<!-- irox_carto&#45;&gt;irox_time -->
<g id="edge9" class="edge">
<title>irox_carto&#45;&gt;irox_time</title>
<path fill="none" stroke="black" d="M657.07,-562.57C640.86,-553.04 625.18,-540.26 616,-523.64 611.85,-516.12 609.84,-507.56 609.19,-498.92"/>
<polygon fill="black" stroke="black" points="612.68,-498.71 608.98,-488.78 605.68,-498.85 612.68,-498.71"/>
</g>
<!-- irox_carto&#45;&gt;irox_enums -->
<g id="edge10" class="edge">
<title>irox_carto&#45;&gt;irox_enums</title>
<path fill="none" stroke="black" d="M725.5,-542.15C735.41,-503.54 751.77,-446.13 772,-398.33 776.28,-388.21 781.47,-377.72 786.79,-367.78"/>
<polygon fill="black" stroke="black" points="789.96,-369.28 791.68,-358.82 783.81,-365.92 789.96,-369.28"/>
</g>
<!-- irox_cryptids -->
<g id="node8" class="node">
<title>irox_cryptids</title>
<ellipse fill="none" stroke="black" cx="94" cy="-316.07" rx="66.44" ry="45.01"/>
<text text-anchor="start" x="56.67" y="-330.47" font-family="Times New Roman,serif" font-weight="bold" font-size="14.00">irox_cryptids</text>
<polygon fill="#555555" stroke="transparent" points="55,-306.07 55,-324.07 106,-324.07 106,-306.07 55,-306.07"/>
<text text-anchor="start" x="69" y="-311.27" font-family="sans-serif" font-size="12.00" fill="#ffffff"> no_std</text>
<polygon fill="#97ca00" stroke="transparent" points="106,-306.07 106,-324.07 133,-324.07 133,-306.07 106,-306.07"/>
<text text-anchor="start" x="108" y="-311.27" font-family="sans-serif" font-size="12.00" fill="#ffffff">yes</text>
<polygon fill="#555555" stroke="transparent" points="55,-288.07 55,-306.07 106,-306.07 106,-288.07 55,-288.07"/>
<text text-anchor="start" x="59.68" y="-293.27" font-family="sans-serif" font-size="12.00" fill="#ffffff"> no_alloc</text>
<polygon fill="#97ca00" stroke="transparent" points="106,-288.07 106,-306.07 133,-306.07 133,-288.07 106,-288.07"/>
<text text-anchor="start" x="108" y="-293.27" font-family="sans-serif" font-size="12.00" fill="#ffffff">yes</text>
</g>
<!-- irox_cryptids&#45;&gt;irox_tools -->
<g id="edge12" class="edge">
<title>irox_cryptids&#45;&gt;irox_tools</title>
<path fill="none" stroke="black" d="M124.25,-275.54C137.8,-260.68 155,-245.17 174,-236.02 251.87,-198.49 500.3,-182.42 624.25,-176.59"/>
<polygon fill="black" stroke="black" points="624.57,-180.08 634.4,-176.12 624.25,-173.09 624.57,-180.08"/>
</g>
<!-- irox_cryptids&#45;&gt;irox_bits -->
<g id="edge13" class="edge">
<title>irox_cryptids&#45;&gt;irox_bits</title>
<path fill="none" stroke="black" d="M113.31,-272.38C121.33,-258.92 131.88,-245.19 145,-236.02 284.96,-138.18 809,-74.1 1000.96,-53.47"/>
<polygon fill="black" stroke="black" points="1001.37,-56.95 1010.94,-52.41 1000.62,-49.99 1001.37,-56.95"/>
</g>
<!-- irox_types -->
<g id="node9" class="node">
<title>irox_types</title>
<ellipse fill="none" stroke="black" cx="855" cy="-443.58" rx="74.49" ry="45.01"/>
<text text-anchor="start" x="825.95" y="-457.98" font-family="Times New Roman,serif" font-weight="bold" font-size="14.00">irox_types</text>
<polygon fill="#555555" stroke="transparent" points="811,-433.58 811,-451.58 850,-451.58 850,-433.58 811,-433.58"/>
<text text-anchor="start" x="813" y="-438.78" font-family="sans-serif" font-size="12.00" fill="#ffffff"> no_std</text>
<polygon fill="#97ca00" stroke="transparent" points="850,-433.58 850,-451.58 900,-451.58 900,-433.58 850,-433.58"/>
<text text-anchor="start" x="852" y="-438.78" font-family="sans-serif" font-size="12.00" fill="#ffffff">yes</text>
<polygon fill="#555555" stroke="transparent" points="811,-415.58 811,-433.58 850,-433.58 850,-415.58 811,-415.58"/>
<text text-anchor="start" x="821.68" y="-420.78" font-family="sans-serif" font-size="12.00" fill="#ffffff"> alloc</text>
<polygon fill="#9f9f9f" stroke="transparent" points="850,-415.58 850,-433.58 900,-433.58 900,-415.58 850,-415.58"/>
<text text-anchor="start" x="852" y="-420.78" font-family="sans-serif" font-size="12.00" fill="#ffffff">required</text>
</g>
<!-- irox_types&#45;&gt;irox_tools -->
<g id="edge14" class="edge">
<title>irox_types&#45;&gt;irox_tools</title>
<path fill="none" stroke="black" d="M883.02,-401.27C904.06,-364.61 925.27,-310.83 900,-270.82 870.67,-224.38 812.38,-199.71 765.6,-186.88"/>
<polygon fill="black" stroke="black" points="766.36,-183.46 755.8,-184.32 764.59,-190.24 766.36,-183.46"/>
</g>
<!-- irox_types&#45;&gt;irox_bits -->
<g id="edge16" class="edge">
<title>irox_types&#45;&gt;irox_bits</title>
<path fill="none" stroke="black" stroke-dasharray="5,2" d="M888.86,-403.24C895.26,-395.68 901.87,-387.79 908,-380.33 953.88,-324.46 975.43,-316.85 1009,-252.82 1034.55,-204.1 1051.51,-143.36 1061.33,-100.39"/>
<polygon fill="black" stroke="black" points="1064.79,-100.94 1063.56,-90.42 1057.96,-99.42 1064.79,-100.94"/>
<text text-anchor="middle" x="1050.2" y="-240.22" font-family="Times New Roman,serif" font-size="14.00">feature[bits]</text>
</g>
<!-- irox_types&#45;&gt;irox_enums -->
<g id="edge15" class="edge">
<title>irox_types&#45;&gt;irox_enums</title>
<path fill="none" stroke="black" d="M841.82,-399.04C839.05,-389.9 836.1,-380.15 833.23,-370.69"/>
<polygon fill="black" stroke="black" points="836.54,-369.52 830.29,-360.97 829.84,-371.55 836.54,-369.52"/>
</g>
<!-- irox_imagery -->
<g id="node10" class="node">
<title>irox_imagery</title>
<ellipse fill="none" stroke="black" cx="862" cy="-714.4" rx="68.68" ry="45.01"/>
<text text-anchor="start" x="824.79" y="-728.8" font-family="Times New Roman,serif" font-weight="bold" font-size="14.00">irox_imagery</text>
<polygon fill="#555555" stroke="transparent" points="822,-704.4 822,-722.4 853,-722.4 853,-704.4 822,-704.4"/>
<text text-anchor="start" x="834" y="-709.6" font-family="sans-serif" font-size="12.00" fill="#ffffff"> std</text>
<polygon fill="#007ec6" stroke="transparent" points="853,-704.4 853,-722.4 903,-722.4 903,-704.4 853,-704.4"/>
<text text-anchor="start" x="855" y="-709.6" font-family="sans-serif" font-size="12.00" fill="#ffffff">feature</text>
<polygon fill="#555555" stroke="transparent" points="822,-686.4 822,-704.4 853,-704.4 853,-686.4 822,-686.4"/>
<text text-anchor="start" x="824.68" y="-691.6" font-family="sans-serif" font-size="12.00" fill="#ffffff"> alloc</text>
<polygon fill="#9f9f9f" stroke="transparent" points="853,-686.4 853,-704.4 903,-704.4 903,-686.4 853,-686.4"/>
<text text-anchor="start" x="855" y="-691.6" font-family="sans-serif" font-size="12.00" fill="#ffffff">required</text>
</g>
<!-- irox_imagery&#45;&gt;irox_tools -->
<g id="edge17" class="edge">
<title>irox_imagery&#45;&gt;irox_tools</title>
<path fill="none" stroke="black" d="M930.74,-711.58C1013.93,-705.29 1143,-680.59 1143,-587.89 1143,-587.89 1143,-587.89 1143,-315.07 1143,-272.27 1124.26,-258.76 1088,-236.02 1035.85,-203.31 865.54,-185.93 767.41,-178.42"/>
<polygon fill="black" stroke="black" points="767.51,-174.92 757.27,-177.66 766.98,-181.9 767.51,-174.92"/>
</g>
<!-- irox_imagery&#45;&gt;irox_bits -->
<g id="edge18" class="edge">
<title>irox_imagery&#45;&gt;irox_bits</title>
<path fill="none" stroke="black" d="M929.98,-707.19C986.22,-699.86 1066.83,-684.19 1130,-651.15 1162,-634.41 1181,-624.01 1181,-587.89 1181,-587.89 1181,-587.89 1181,-171.76 1181,-134.86 1153.8,-103.51 1126.58,-81.37"/>
<polygon fill="black" stroke="black" points="1128.58,-78.49 1118.54,-75.08 1124.26,-84 1128.58,-78.49"/>
</g>
<!-- irox_imagery&#45;&gt;irox_units -->
<g id="edge19" class="edge">
<title>irox_imagery&#45;&gt;irox_units</title>
<path fill="none" stroke="black" d="M793.53,-710.06C632.04,-701.49 238,-676.22 199,-632.15 115.46,-537.75 275.08,-411.36 364.83,-351.41"/>
<polygon fill="black" stroke="black" points="366.88,-354.25 373.29,-345.82 363.02,-348.41 366.88,-354.25"/>
</g>
<!-- irox_imagery&#45;&gt;irox_carto -->
<g id="edge20" class="edge">
<title>irox_imagery&#45;&gt;irox_carto</title>
<path fill="none" stroke="black" d="M820.66,-678.11C803.05,-663.07 782.37,-645.42 764,-629.73"/>
<polygon fill="black" stroke="black" points="766.16,-626.97 756.28,-623.14 761.62,-632.3 766.16,-626.97"/>
</g>
<!-- irox_imagery&#45;&gt;irox_types -->
<g id="edge21" class="edge">
<title>irox_imagery&#45;&gt;irox_types</title>
<path fill="none" stroke="black" d="M847.34,-670.02C843.9,-657.9 840.73,-644.64 839,-632.15 832.8,-587.47 837.93,-536.44 843.99,-498.91"/>
<polygon fill="black" stroke="black" points="847.5,-499.13 845.71,-488.69 840.59,-497.97 847.5,-499.13"/>
</g>
<!-- irox_log -->
<g id="node11" class="node">
<title>irox_log</title>
<ellipse fill="none" stroke="black" cx="904" cy="-586.89" rx="55.72" ry="32.55"/>
<text text-anchor="start" x="880.78" y="-592.29" font-family="Times New Roman,serif" font-weight="bold" font-size="14.00">irox_log</text>
<polygon fill="#555555" stroke="transparent" points="873,-567.89 873,-585.89 895,-585.89 895,-567.89 873,-567.89"/>
<text text-anchor="start" x="876" y="-573.09" font-family="sans-serif" font-size="12.00" fill="#ffffff"> std</text>
<polygon fill="#007ec6" stroke="transparent" points="895,-567.89 895,-585.89 936,-585.89 936,-567.89 895,-567.89"/>
<text text-anchor="start" x="897" y="-573.09" font-family="sans-serif" font-size="12.00" fill="#ffffff">feature</text>
</g>
<!-- irox_imagery&#45;&gt;irox_log -->
<g id="edge22" class="edge">
<title>irox_imagery&#45;&gt;irox_log</title>
<path fill="none" stroke="black" d="M876.57,-669.86C881.03,-656.54 885.91,-641.95 890.31,-628.82"/>
<polygon fill="black" stroke="black" points="893.7,-629.7 893.56,-619.1 887.06,-627.47 893.7,-629.7"/>
</g>
<!-- irox_log&#45;&gt;irox_tools -->
<g id="edge36" class="edge">
<title>irox_log&#45;&gt;irox_tools</title>
<path fill="none" stroke="black" d="M917.77,-555.13C925.4,-536.39 934.11,-511.72 938,-488.84 954.31,-392.95 958.01,-359.92 919,-270.82 893.81,-213.29 822.61,-189.85 767.37,-180.3"/>
<polygon fill="black" stroke="black" points="767.68,-176.81 757.25,-178.68 766.57,-183.72 767.68,-176.81"/>
</g>
<!-- irox_log&#45;&gt;irox_time -->
<g id="edge38" class="edge">
<title>irox_log&#45;&gt;irox_time</title>
<path fill="none" stroke="black" d="M862.11,-565.19C814.49,-541.67 736.24,-503.01 681.2,-475.81"/>
<polygon fill="black" stroke="black" points="682.75,-472.67 672.23,-471.38 679.65,-478.95 682.75,-472.67"/>
<text text-anchor="middle" x="801.26" y="-511.04" font-family="Times New Roman,serif" font-size="14.00">feature[std]</text>
</g>
<!-- log -->
<g id="node14" class="node">
<title>log</title>
<polygon fill="none" stroke="black" points="1039,-461.58 985,-461.58 985,-457.58 981,-457.58 981,-453.58 985,-453.58 985,-433.58 981,-433.58 981,-429.58 985,-429.58 985,-425.58 1039,-425.58 1039,-461.58"/>
<polyline fill="none" stroke="black" points="985,-457.58 989,-457.58 989,-453.58 985,-453.58 "/>
<polyline fill="none" stroke="black" points="985,-433.58 989,-433.58 989,-429.58 985,-429.58 "/>
<text text-anchor="middle" x="1012" y="-439.38" font-family="Times New Roman,serif" font-size="14.00">log</text>
</g>
<!-- irox_log&#45;&gt;log -->
<g id="edge37" class="edge">
<title>irox_log&#45;&gt;log</title>
<path fill="none" stroke="black" d="M936.24,-560.01C948.07,-549.52 961,-536.78 971,-523.64 983.32,-507.44 993.82,-486.99 1001.1,-470.95"/>
<polygon fill="black" stroke="black" points="1004.39,-472.17 1005.21,-461.61 997.98,-469.35 1004.39,-472.17"/>
</g>
<!-- irox_stats -->
<g id="node12" class="node">
<title>irox_stats</title>
<ellipse fill="none" stroke="black" cx="282" cy="-586.89" rx="74.49" ry="45.01"/>
<text text-anchor="start" x="255.28" y="-601.29" font-family="Times New Roman,serif" font-weight="bold" font-size="14.00">irox_stats</text>
<polygon fill="#555555" stroke="transparent" points="238,-576.89 238,-594.89 277,-594.89 277,-576.89 238,-576.89"/>
<text text-anchor="start" x="240" y="-582.09" font-family="sans-serif" font-size="12.00" fill="#ffffff"> no_std</text>
<polygon fill="#97ca00" stroke="transparent" points="277,-576.89 277,-594.89 327,-594.89 327,-576.89 277,-576.89"/>
<text text-anchor="start" x="279" y="-582.09" font-family="sans-serif" font-size="12.00" fill="#ffffff">yes</text>
<polygon fill="#555555" stroke="transparent" points="238,-558.89 238,-576.89 277,-576.89 277,-558.89 238,-558.89"/>
<text text-anchor="start" x="248.68" y="-564.09" font-family="sans-serif" font-size="12.00" fill="#ffffff"> alloc</text>
<polygon fill="#9f9f9f" stroke="transparent" points="277,-558.89 277,-576.89 327,-576.89 327,-558.89 277,-558.89"/>
<text text-anchor="start" x="279" y="-564.09" font-family="sans-serif" font-size="12.00" fill="#ffffff">required</text>
</g>
<!-- irox_stats&#45;&gt;irox_tools -->
<g id="edge23" class="edge">
<title>irox_stats&#45;&gt;irox_tools</title>
<path fill="none" stroke="black" d="M252.66,-545.18C209.55,-479.96 140.99,-351.22 207,-270.82 233.4,-238.66 496.04,-200.05 625.13,-182.83"/>
<polygon fill="black" stroke="black" points="625.86,-186.26 635.31,-181.48 624.94,-179.32 625.86,-186.26"/>
</g>
<!-- irox_stats&#45;&gt;irox_bits -->
<g id="edge24" class="edge">
<title>irox_stats&#45;&gt;irox_bits</title>
<path fill="none" stroke="black" d="M208.28,-580.33C124.72,-569.54 0,-537.81 0,-444.58 0,-444.58 0,-444.58 0,-171.76 0,-70.74 760.72,-50.86 1000.51,-47.1"/>
<polygon fill="black" stroke="black" points="1000.57,-50.6 1010.51,-46.94 1000.46,-43.6 1000.57,-50.6"/>
</g>
<!-- irox_stats&#45;&gt;irox_units -->
<g id="edge25" class="edge">
<title>irox_stats&#45;&gt;irox_units</title>
<path fill="none" stroke="black" d="M303.71,-543.59C328.15,-495.99 367.84,-418.68 393.93,-367.85"/>
<polygon fill="black" stroke="black" points="397.19,-369.18 398.64,-358.68 390.96,-365.98 397.19,-369.18"/>
</g>
<!-- irox_stats&#45;&gt;irox_time -->
<g id="edge26" class="edge">
<title>irox_stats&#45;&gt;irox_time</title>
<path fill="none" stroke="black" d="M336.43,-555.64C345.86,-550.76 355.64,-545.91 365,-541.64 425.61,-513.98 496.59,-487.22 547.92,-468.83"/>
<polygon fill="black" stroke="black" points="549.34,-472.04 557.59,-465.38 546.99,-465.44 549.34,-472.04"/>
</g>
<!-- irox_stats&#45;&gt;irox_types -->
<g id="edge27" class="edge">
<title>irox_stats&#45;&gt;irox_types</title>
<path fill="none" stroke="black" d="M333.21,-554.09C343.41,-549.06 354.29,-544.57 365,-541.64 452.54,-517.7 689.61,-559.45 773,-523.64 789.4,-516.59 804.44,-504.69 817.02,-492.22"/>
<polygon fill="black" stroke="black" points="819.71,-494.47 824.15,-484.85 814.68,-489.61 819.71,-494.47"/>
</g>
<!-- irox_progress -->
<g id="node13" class="node">
<title>irox_progress</title>
<ellipse fill="none" stroke="black" cx="1046" cy="-586.89" rx="68.68" ry="45.01"/>
<text text-anchor="start" x="1008.01" y="-601.29" font-family="Times New Roman,serif" font-weight="bold" font-size="14.00">irox_progress</text>
<polygon fill="#555555" stroke="transparent" points="1006,-576.89 1006,-594.89 1037,-594.89 1037,-576.89 1006,-576.89"/>
<text text-anchor="start" x="1018" y="-582.09" font-family="sans-serif" font-size="12.00" fill="#ffffff"> std</text>
<polygon fill="#9f9f9f" stroke="transparent" points="1037,-576.89 1037,-594.89 1087,-594.89 1087,-576.89 1037,-576.89"/>
<text text-anchor="start" x="1039" y="-582.09" font-family="sans-serif" font-size="12.00" fill="#ffffff">required</text>
<polygon fill="#555555" stroke="transparent" points="1006,-558.89 1006,-576.89 1037,-576.89 1037,-558.89 1006,-558.89"/>
<text text-anchor="start" x="1008.68" y="-564.09" font-family="sans-serif" font-size="12.00" fill="#ffffff"> alloc</text>
<polygon fill="#9f9f9f" stroke="transparent" points="1037,-558.89 1037,-576.89 1087,-576.89 1087,-558.89 1037,-558.89"/>
<text text-anchor="start" x="1039" y="-564.09" font-family="sans-serif" font-size="12.00" fill="#ffffff">required</text>
</g>
<!-- irox_progress&#45;&gt;irox_tools -->
<g id="edge28" class="edge">
<title>irox_progress&#45;&gt;irox_tools</title>
<path fill="none" stroke="black" d="M1054.72,-541.71C1060.49,-502.81 1064.33,-445.23 1048,-398.33 1017.34,-310.25 994.41,-284.94 915,-236.02 869.63,-208.07 811.32,-192.29 766.27,-183.62"/>
<polygon fill="black" stroke="black" points="766.76,-180.15 756.29,-181.77 765.49,-187.03 766.76,-180.15"/>
</g>
<!-- irox_progress&#45;&gt;irox_bits -->
<g id="edge29" class="edge">
<title>irox_progress&#45;&gt;irox_bits</title>
<path fill="none" stroke="black" d="M1065.18,-543.26C1067.49,-536.79 1069.54,-530.11 1071,-523.64 1104.92,-373.56 1090.17,-190.09 1079.5,-100.59"/>
<polygon fill="black" stroke="black" points="1082.94,-99.91 1078.25,-90.41 1075.99,-100.76 1082.94,-99.91"/>
</g>
<!-- irox_progress&#45;&gt;irox_time -->
<g id="edge30" class="edge">
<title>irox_progress&#45;&gt;irox_time</title>
<path fill="none" stroke="black" d="M996.84,-555.14C987.79,-550.2 978.26,-545.47 969,-541.64 885.22,-507.03 859.34,-513.09 772,-488.84 745.26,-481.41 715.98,-473.06 690.19,-465.62"/>
<polygon fill="black" stroke="black" points="691.07,-462.23 680.49,-462.82 689.13,-468.96 691.07,-462.23"/>
</g>
<!-- irox_progress&#45;&gt;log -->
<g id="edge31" class="edge">
<title>irox_progress&#45;&gt;log</title>
<path fill="none" stroke="black" d="M1035.43,-541.96C1029.91,-519.02 1023.33,-491.68 1018.55,-471.81"/>
<polygon fill="black" stroke="black" points="1021.91,-470.8 1016.17,-461.9 1015.1,-472.44 1021.91,-470.8"/>
</g>
<!-- irox_structs -->
<g id="node15" class="node">
<title>irox_structs</title>
<ellipse fill="none" stroke="black" cx="1277" cy="-172.76" rx="67.76" ry="45.01"/>
<text text-anchor="start" x="1243.95" y="-187.16" font-family="Times New Roman,serif" font-weight="bold" font-size="14.00">irox_structs</text>
<polygon fill="#555555" stroke="transparent" points="1237,-162.76 1237,-180.76 1276,-180.76 1276,-162.76 1237,-162.76"/>
<text text-anchor="start" x="1239" y="-167.96" font-family="sans-serif" font-size="12.00" fill="#ffffff"> no_std</text>
<polygon fill="#97ca00" stroke="transparent" points="1276,-162.76 1276,-180.76 1317,-180.76 1317,-162.76 1276,-162.76"/>
<text text-anchor="start" x="1278" y="-167.96" font-family="sans-serif" font-size="12.00" fill="#ffffff">yes</text>
<polygon fill="#555555" stroke="transparent" points="1237,-144.76 1237,-162.76 1276,-162.76 1276,-144.76 1237,-144.76"/>
<text text-anchor="start" x="1247.68" y="-149.96" font-family="sans-serif" font-size="12.00" fill="#ffffff"> alloc</text>
<polygon fill="#007ec6" stroke="transparent" points="1276,-144.76 1276,-162.76 1317,-162.76 1317,-144.76 1276,-144.76"/>
<text text-anchor="start" x="1278" y="-149.96" font-family="sans-serif" font-size="12.00" fill="#ffffff">feature</text>
</g>
<!-- irox_structs&#45;&gt;irox_bits -->
<g id="edge32" class="edge">
<title>irox_structs&#45;&gt;irox_bits</title>
<path fill="none" stroke="black" d="M1235.12,-137.03C1222.57,-127.29 1208.53,-117.05 1195,-108.51 1175.43,-96.16 1153.09,-84.26 1132.88,-74.23"/>
<polygon fill="black" stroke="black" points="1134.27,-71.02 1123.75,-69.76 1131.19,-77.3 1134.27,-71.02"/>
</g>
<!-- irox_build_rs -->
<g id="node16" class="node">
<title>irox_build_rs</title>
<ellipse fill="none" stroke="black" cx="441" cy="-586.89" rx="67.35" ry="32.55"/>
<text text-anchor="start" x="403.78" y="-592.29" font-family="Times New Roman,serif" font-weight="bold" font-size="14.00">irox_build_rs</text>
<polygon fill="#555555" stroke="transparent" points="402,-567.89 402,-585.89 427,-585.89 427,-567.89 402,-567.89"/>
<text text-anchor="start" x="408" y="-573.09" font-family="sans-serif" font-size="12.00" fill="#ffffff"> std</text>
<polygon fill="#9f9f9f" stroke="transparent" points="427,-567.89 427,-585.89 481,-585.89 481,-567.89 427,-567.89"/>
<text text-anchor="start" x="429" y="-573.09" font-family="sans-serif" font-size="12.00" fill="#ffffff">required</text>
</g>
<!-- irox_build_rs&#45;&gt;irox_time -->
<g id="edge33" class="edge">
<title>irox_build_rs&#45;&gt;irox_time</title>
<path fill="none" stroke="black" d="M475.13,-558.65C501.11,-537.9 537.31,-509 566.77,-485.48"/>
<polygon fill="black" stroke="black" points="569.25,-487.98 574.88,-479.01 564.89,-482.51 569.25,-487.98"/>
<text text-anchor="middle" x="566.26" y="-511.04" font-family="Times New Roman,serif" font-size="14.00">feature[std]</text>
</g>
<!-- irox_csv -->
<g id="node17" class="node">
<title>irox_csv</title>
<ellipse fill="none" stroke="black" cx="278" cy="-316.07" rx="62.45" ry="32.55"/>
<text text-anchor="start" x="253.89" y="-321.47" font-family="Times New Roman,serif" font-weight="bold" font-size="14.00">irox_csv</text>
<polygon fill="#555555" stroke="transparent" points="242,-297.07 242,-315.07 264,-315.07 264,-297.07 242,-297.07"/>
<text text-anchor="start" x="245" y="-302.27" font-family="sans-serif" font-size="12.00" fill="#ffffff"> std</text>
<polygon fill="#9f9f9f" stroke="transparent" points="264,-297.07 264,-315.07 314,-315.07 314,-297.07 264,-297.07"/>
<text text-anchor="start" x="266" y="-302.27" font-family="sans-serif" font-size="12.00" fill="#ffffff">required</text>
</g>
<!-- irox_csv&#45;&gt;irox_tools -->
<g id="edge34" class="edge">
<title>irox_csv&#45;&gt;irox_tools</title>
<path fill="none" stroke="black" d="M314.49,-289.57C325.26,-282.81 337.3,-275.97 349,-270.82 441.4,-230.1 555.22,-202.15 626.73,-187.05"/>
<polygon fill="black" stroke="black" points="627.46,-190.47 636.53,-185 626.03,-183.62 627.46,-190.47"/>
</g>
<!-- irox_dot -->
<g id="node18" class="node">
<title>irox_dot</title>
<ellipse fill="none" stroke="black" cx="1425" cy="-172.76" rx="62.45" ry="32.55"/>
<text text-anchor="start" x="1401.28" y="-178.16" font-family="Times New Roman,serif" font-weight="bold" font-size="14.00">irox_dot</text>
<polygon fill="#555555" stroke="transparent" points="1389,-153.76 1389,-171.76 1411,-171.76 1411,-153.76 1389,-153.76"/>
<text text-anchor="start" x="1392" y="-158.96" font-family="sans-serif" font-size="12.00" fill="#ffffff"> std</text>
<polygon fill="#9f9f9f" stroke="transparent" points="1411,-153.76 1411,-171.76 1461,-171.76 1461,-153.76 1411,-153.76"/>
<text text-anchor="start" x="1413" y="-158.96" font-family="sans-serif" font-size="12.00" fill="#ffffff">required</text>
</g>
<!-- irox_dot&#45;&gt;irox_bits -->
<g id="edge35" class="edge">
<title>irox_dot&#45;&gt;irox_bits</title>
<path fill="none" stroke="black" d="M1388.49,-146.32C1377.71,-139.56 1365.68,-132.71 1354,-127.51 1284.15,-96.4 1199.29,-73.85 1141.02,-60.5"/>
<polygon fill="black" stroke="black" points="1141.7,-57.07 1131.18,-58.28 1140.16,-63.9 1141.7,-57.07"/>
</g>
</g>
</svg>
