<?xml version="1.0" encoding="UTF-8" standalone="no"?>
<!DOCTYPE svg PUBLIC "-//W3C//DTD SVG 1.1//EN"
 "http://www.w3.org/Graphics/SVG/1.1/DTD/svg11.dtd">
<!-- Generated by graphviz version 2.44.1 (20200629.0846)
 -->
<!-- Title: DEPS Pages: 1 -->
<svg width="1080pt" height="768pt"
 viewBox="0.00 0.00 1080.00 767.66" xmlns="http://www.w3.org/2000/svg" xmlns:xlink="http://www.w3.org/1999/xlink">
<g id="graph0" class="graph" transform="scale(1 1) rotate(0) translate(4 763.66)">
<title>DEPS</title>
<polygon fill="white" stroke="transparent" points="-4,4 -4,-763.66 1076,-763.66 1076,4 -4,4"/>
<!-- irox_tools -->
<g id="node1" class="node">
<title>irox_tools</title>
<ellipse fill="none" stroke="black" cx="444" cy="-172.76" rx="61.54" ry="45.01"/>
<text text-anchor="start" x="416.11" y="-187.16" font-family="Times New Roman,serif" font-weight="bold" font-size="14.00">irox_tools</text>
<polygon fill="#555555" stroke="transparent" points="409,-162.76 409,-180.76 439,-180.76 439,-162.76 409,-162.76"/>
<text text-anchor="start" x="420" y="-167.96" font-family="sans-serif" font-size="12.00" fill="#ffffff"> std</text>
<polygon fill="#007ec6" stroke="transparent" points="439,-162.76 439,-180.76 480,-180.76 480,-162.76 439,-162.76"/>
<text text-anchor="start" x="441" y="-167.96" font-family="sans-serif" font-size="12.00" fill="#ffffff">feature</text>
<polygon fill="#555555" stroke="transparent" points="409,-144.76 409,-162.76 439,-162.76 439,-144.76 409,-144.76"/>
<text text-anchor="start" x="411" y="-149.96" font-family="sans-serif" font-size="12.00" fill="#ffffff">alloc</text>
<polygon fill="#007ec6" stroke="transparent" points="439,-144.76 439,-162.76 480,-162.76 480,-144.76 439,-144.76"/>
<text text-anchor="start" x="441" y="-149.96" font-family="sans-serif" font-size="12.00" fill="#ffffff">feature</text>
</g>
<!-- irox_bits -->
<g id="node2" class="node">
<title>irox_bits</title>
<ellipse fill="none" stroke="black" cx="170" cy="-45.25" rx="61.54" ry="45.01"/>
<text text-anchor="start" x="145.61" y="-59.65" font-family="Times New Roman,serif" font-weight="bold" font-size="14.00">irox_bits</text>
<polygon fill="#555555" stroke="transparent" points="135,-35.25 135,-53.25 165,-53.25 165,-35.25 135,-35.25"/>
<text text-anchor="start" x="146" y="-40.45" font-family="sans-serif" font-size="12.00" fill="#ffffff"> std</text>
<polygon fill="#007ec6" stroke="transparent" points="165,-35.25 165,-53.25 206,-53.25 206,-35.25 165,-35.25"/>
<text text-anchor="start" x="167" y="-40.45" font-family="sans-serif" font-size="12.00" fill="#ffffff">feature</text>
<polygon fill="#555555" stroke="transparent" points="135,-17.25 135,-35.25 165,-35.25 165,-17.25 135,-17.25"/>
<text text-anchor="start" x="137" y="-22.45" font-family="sans-serif" font-size="12.00" fill="#ffffff">alloc</text>
<polygon fill="#007ec6" stroke="transparent" points="165,-17.25 165,-35.25 206,-35.25 206,-17.25 165,-17.25"/>
<text text-anchor="start" x="167" y="-22.45" font-family="sans-serif" font-size="12.00" fill="#ffffff">feature</text>
</g>
<!-- irox_tools&#45;&gt;irox_bits -->
<g id="edge1" class="edge">
<title>irox_tools&#45;&gt;irox_bits</title>
<path fill="none" stroke="black" d="M392.14,-148.01C346.23,-126.98 279.18,-96.27 230.77,-74.09"/>
<polygon fill="black" stroke="black" points="232.2,-70.9 221.65,-69.91 229.28,-77.26 232.2,-70.9"/>
</g>
<!-- irox_units -->
<g id="node3" class="node">
<title>irox_units</title>
<ellipse fill="none" stroke="black" cx="354" cy="-316.07" rx="61.54" ry="45.01"/>
<text text-anchor="start" x="326.11" y="-330.47" font-family="Times New Roman,serif" font-weight="bold" font-size="14.00">irox_units</text>
<polygon fill="#555555" stroke="transparent" points="319,-306.07 319,-324.07 349,-324.07 349,-306.07 319,-306.07"/>
<text text-anchor="start" x="330" y="-311.27" font-family="sans-serif" font-size="12.00" fill="#ffffff"> std</text>
<polygon fill="#007ec6" stroke="transparent" points="349,-306.07 349,-324.07 390,-324.07 390,-306.07 349,-306.07"/>
<text text-anchor="start" x="351" y="-311.27" font-family="sans-serif" font-size="12.00" fill="#ffffff">feature</text>
<polygon fill="#555555" stroke="transparent" points="319,-288.07 319,-306.07 349,-306.07 349,-288.07 319,-288.07"/>
<text text-anchor="start" x="321" y="-293.27" font-family="sans-serif" font-size="12.00" fill="#ffffff">alloc</text>
<polygon fill="#007ec6" stroke="transparent" points="349,-288.07 349,-306.07 390,-306.07 390,-288.07 349,-288.07"/>
<text text-anchor="start" x="351" y="-293.27" font-family="sans-serif" font-size="12.00" fill="#ffffff">feature</text>
</g>
<!-- irox_units&#45;&gt;irox_tools -->
<g id="edge2" class="edge">
<title>irox_units&#45;&gt;irox_tools</title>
<path fill="none" stroke="black" d="M379.79,-274.58C390.05,-258.47 401.96,-239.78 412.7,-222.9"/>
<polygon fill="black" stroke="black" points="415.79,-224.58 418.21,-214.26 409.88,-220.82 415.79,-224.58"/>
</g>
<!-- irox_fixedmath -->
<g id="node4" class="node">
<title>irox_fixedmath</title>
<ellipse fill="none" stroke="black" cx="765" cy="-316.07" rx="74.91" ry="45.01"/>
<text text-anchor="start" x="721.84" y="-330.47" font-family="Times New Roman,serif" font-weight="bold" font-size="14.00">irox_fixedmath</text>
<polygon fill="#555555" stroke="transparent" points="720,-306.07 720,-324.07 779,-324.07 779,-306.07 720,-306.07"/>
<text text-anchor="start" x="742" y="-311.27" font-family="sans-serif" font-size="12.00" fill="#ffffff"> no_std</text>
<polygon fill="#97ca00" stroke="transparent" points="779,-306.07 779,-324.07 810,-324.07 810,-306.07 779,-306.07"/>
<text text-anchor="start" x="781" y="-311.27" font-family="sans-serif" font-size="12.00" fill="#ffffff">yes</text>
<polygon fill="#555555" stroke="transparent" points="720,-288.07 720,-306.07 779,-306.07 779,-288.07 720,-288.07"/>
<text text-anchor="start" x="732.68" y="-293.27" font-family="sans-serif" font-size="12.00" fill="#ffffff"> no_alloc</text>
<polygon fill="#97ca00" stroke="transparent" points="779,-288.07 779,-306.07 810,-306.07 810,-288.07 779,-288.07"/>
<text text-anchor="start" x="781" y="-293.27" font-family="sans-serif" font-size="12.00" fill="#ffffff">yes</text>
</g>
<!-- irox_fixedmath&#45;&gt;irox_tools -->
<g id="edge3" class="edge">
<title>irox_fixedmath&#45;&gt;irox_tools</title>
<path fill="none" stroke="black" d="M710.55,-284.59C700.85,-279.68 690.73,-274.88 681,-270.82 609.17,-240.82 584.59,-250.82 514,-218.02 508.57,-215.5 503.06,-212.62 497.63,-209.58"/>
<polygon fill="black" stroke="black" points="499,-206.33 488.6,-204.33 495.49,-212.38 499,-206.33"/>
</g>
<!-- irox_time -->
<g id="node5" class="node">
<title>irox_time</title>
<ellipse fill="none" stroke="black" cx="617" cy="-443.58" rx="68.68" ry="45.01"/>
<text text-anchor="start" x="590.28" y="-457.98" font-family="Times New Roman,serif" font-weight="bold" font-size="14.00">irox_time</text>
<polygon fill="#555555" stroke="transparent" points="577,-433.58 577,-451.58 608,-451.58 608,-433.58 577,-433.58"/>
<text text-anchor="start" x="589" y="-438.78" font-family="sans-serif" font-size="12.00" fill="#ffffff"> std</text>
<polygon fill="#007ec6" stroke="transparent" points="608,-433.58 608,-451.58 658,-451.58 658,-433.58 608,-433.58"/>
<text text-anchor="start" x="610" y="-438.78" font-family="sans-serif" font-size="12.00" fill="#ffffff">feature</text>
<polygon fill="#555555" stroke="transparent" points="577,-415.58 577,-433.58 608,-433.58 608,-415.58 577,-415.58"/>
<text text-anchor="start" x="579.68" y="-420.78" font-family="sans-serif" font-size="12.00" fill="#ffffff"> alloc</text>
<polygon fill="#9f9f9f" stroke="transparent" points="608,-415.58 608,-433.58 658,-433.58 658,-415.58 608,-415.58"/>
<text text-anchor="start" x="610" y="-420.78" font-family="sans-serif" font-size="12.00" fill="#ffffff">required</text>
</g>
<!-- irox_time&#45;&gt;irox_tools -->
<g id="edge4" class="edge">
<title>irox_time&#45;&gt;irox_tools</title>
<path fill="none" stroke="black" d="M576.35,-407.03C563.03,-393.75 549.08,-377.86 539,-361.33 508.34,-311.06 524.91,-287.31 496,-236.02 492.7,-230.17 488.83,-224.33 484.71,-218.72"/>
<polygon fill="black" stroke="black" points="487.39,-216.47 478.53,-210.66 481.84,-220.73 487.39,-216.47"/>
</g>
<!-- irox_time&#45;&gt;irox_units -->
<g id="edge5" class="edge">
<title>irox_time&#45;&gt;irox_units</title>
<path fill="none" stroke="black" d="M561.87,-416.27C518.7,-395.67 458.72,-367.05 414.28,-345.84"/>
<polygon fill="black" stroke="black" points="415.58,-342.58 405.05,-341.43 412.56,-348.9 415.58,-342.58"/>
</g>
<!-- irox_time&#45;&gt;irox_fixedmath -->
<g id="edge6" class="edge">
<title>irox_time&#45;&gt;irox_fixedmath</title>
<path fill="none" stroke="black" d="M658.62,-407.29C675.98,-392.57 696.29,-375.34 714.49,-359.91"/>
<polygon fill="black" stroke="black" points="716.79,-362.55 722.15,-353.41 712.26,-357.21 716.79,-362.55"/>
</g>
<!-- irox_enums -->
<g id="node6" class="node">
<title>irox_enums</title>
<ellipse fill="none" stroke="black" cx="932" cy="-316.07" rx="74.49" ry="45.01"/>
<text text-anchor="start" x="899.45" y="-330.47" font-family="Times New Roman,serif" font-weight="bold" font-size="14.00">irox_enums</text>
<polygon fill="#555555" stroke="transparent" points="888,-306.07 888,-324.07 927,-324.07 927,-306.07 888,-306.07"/>
<text text-anchor="start" x="890" y="-311.27" font-family="sans-serif" font-size="12.00" fill="#ffffff"> no_std</text>
<polygon fill="#97ca00" stroke="transparent" points="927,-306.07 927,-324.07 977,-324.07 977,-306.07 927,-306.07"/>
<text text-anchor="start" x="929" y="-311.27" font-family="sans-serif" font-size="12.00" fill="#ffffff">yes</text>
<polygon fill="#555555" stroke="transparent" points="888,-288.07 888,-306.07 927,-306.07 927,-288.07 888,-288.07"/>
<text text-anchor="start" x="898.68" y="-293.27" font-family="sans-serif" font-size="12.00" fill="#ffffff"> alloc</text>
<polygon fill="#9f9f9f" stroke="transparent" points="927,-288.07 927,-306.07 977,-306.07 977,-288.07 927,-288.07"/>
<text text-anchor="start" x="929" y="-293.27" font-family="sans-serif" font-size="12.00" fill="#ffffff">required</text>
</g>
<!-- irox_time&#45;&gt;irox_enums -->
<g id="edge7" class="edge">
<title>irox_time&#45;&gt;irox_enums</title>
<path fill="none" stroke="black" d="M679.05,-423.71C726.35,-408.64 792.72,-386.01 849,-361.33 855.58,-358.44 862.35,-355.24 869.05,-351.92"/>
<polygon fill="black" stroke="black" points="870.78,-354.97 878.12,-347.33 867.62,-348.72 870.78,-354.97"/>
</g>
<!-- irox_carto -->
<g id="node7" class="node">
<title>irox_carto</title>
<ellipse fill="none" stroke="black" cx="795" cy="-586.89" rx="68.68" ry="45.01"/>
<text text-anchor="start" x="766.73" y="-601.29" font-family="Times New Roman,serif" font-weight="bold" font-size="14.00">irox_carto</text>
<polygon fill="#555555" stroke="transparent" points="755,-576.89 755,-594.89 786,-594.89 786,-576.89 755,-576.89"/>
<text text-anchor="start" x="767" y="-582.09" font-family="sans-serif" font-size="12.00" fill="#ffffff"> std</text>
<polygon fill="#007ec6" stroke="transparent" points="786,-576.89 786,-594.89 836,-594.89 836,-576.89 786,-576.89"/>
<text text-anchor="start" x="788" y="-582.09" font-family="sans-serif" font-size="12.00" fill="#ffffff">feature</text>
<polygon fill="#555555" stroke="transparent" points="755,-558.89 755,-576.89 786,-576.89 786,-558.89 755,-558.89"/>
<text text-anchor="start" x="757.68" y="-564.09" font-family="sans-serif" font-size="12.00" fill="#ffffff"> alloc</text>
<polygon fill="#9f9f9f" stroke="transparent" points="786,-558.89 786,-576.89 836,-576.89 836,-558.89 786,-558.89"/>
<text text-anchor="start" x="788" y="-564.09" font-family="sans-serif" font-size="12.00" fill="#ffffff">required</text>
</g>
<!-- irox_carto&#45;&gt;irox_tools -->
<g id="edge8" class="edge">
<title>irox_carto&#45;&gt;irox_tools</title>
<path fill="none" stroke="black" d="M844.41,-555.2C932.79,-496.66 1101.03,-366.4 1015,-270.82 940.1,-187.61 619.75,-254.76 514,-218.02 508.03,-215.94 502.04,-213.28 496.23,-210.28"/>
<polygon fill="black" stroke="black" points="497.69,-207.1 487.25,-205.34 494.32,-213.23 497.69,-207.1"/>
</g>
<!-- irox_carto&#45;&gt;irox_units -->
<g id="edge11" class="edge">
<title>irox_carto&#45;&gt;irox_units</title>
<path fill="none" stroke="black" d="M783.21,-542.16C769.3,-499.04 741.9,-434.5 695,-398.33 638.57,-354.81 608.32,-377.84 539,-361.33 500.4,-352.14 457.29,-341.82 422.4,-333.47"/>
<polygon fill="black" stroke="black" points="422.86,-329.98 412.32,-331.06 421.23,-336.79 422.86,-329.98"/>
</g>
<!-- irox_carto&#45;&gt;irox_time -->
<g id="edge9" class="edge">
<title>irox_carto&#45;&gt;irox_time</title>
<path fill="none" stroke="black" d="M752.72,-551C735.79,-537.14 716.06,-521.13 698,-506.84 688.76,-499.53 678.87,-491.82 669.28,-484.42"/>
<polygon fill="black" stroke="black" points="671.38,-481.61 661.32,-478.28 667.1,-487.16 671.38,-481.61"/>
</g>
<!-- irox_carto&#45;&gt;irox_enums -->
<g id="edge10" class="edge">
<title>irox_carto&#45;&gt;irox_enums</title>
<path fill="none" stroke="black" d="M816.41,-543.89C840.49,-496.63 879.64,-419.81 905.6,-368.87"/>
<polygon fill="black" stroke="black" points="908.87,-370.17 910.29,-359.67 902.63,-366.99 908.87,-370.17"/>
</g>
<!-- irox_cryptids -->
<g id="node8" class="node">
<title>irox_cryptids</title>
<ellipse fill="none" stroke="black" cx="170" cy="-316.07" rx="66.44" ry="45.01"/>
<text text-anchor="start" x="132.67" y="-330.47" font-family="Times New Roman,serif" font-weight="bold" font-size="14.00">irox_cryptids</text>
<polygon fill="#555555" stroke="transparent" points="131,-306.07 131,-324.07 182,-324.07 182,-306.07 131,-306.07"/>
<text text-anchor="start" x="145" y="-311.27" font-family="sans-serif" font-size="12.00" fill="#ffffff"> no_std</text>
<polygon fill="#97ca00" stroke="transparent" points="182,-306.07 182,-324.07 209,-324.07 209,-306.07 182,-306.07"/>
<text text-anchor="start" x="184" y="-311.27" font-family="sans-serif" font-size="12.00" fill="#ffffff">yes</text>
<polygon fill="#555555" stroke="transparent" points="131,-288.07 131,-306.07 182,-306.07 182,-288.07 131,-288.07"/>
<text text-anchor="start" x="135.68" y="-293.27" font-family="sans-serif" font-size="12.00" fill="#ffffff"> no_alloc</text>
<polygon fill="#97ca00" stroke="transparent" points="182,-288.07 182,-306.07 209,-306.07 209,-288.07 182,-288.07"/>
<text text-anchor="start" x="184" y="-293.27" font-family="sans-serif" font-size="12.00" fill="#ffffff">yes</text>
</g>
<!-- irox_cryptids&#45;&gt;irox_tools -->
<g id="edge12" class="edge">
<title>irox_cryptids&#45;&gt;irox_tools</title>
<path fill="none" stroke="black" d="M202.37,-276.1C215.86,-261.86 232.47,-246.65 250,-236.02 288.18,-212.87 335.87,-197.42 374.41,-187.7"/>
<polygon fill="black" stroke="black" points="375.63,-191 384.51,-185.23 373.97,-184.2 375.63,-191"/>
</g>
<!-- irox_cryptids&#45;&gt;irox_bits -->
<g id="edge13" class="edge">
<title>irox_cryptids&#45;&gt;irox_bits</title>
<path fill="none" stroke="black" d="M170,-270.68C170,-224.18 170,-151.08 170,-101.02"/>
<polygon fill="black" stroke="black" points="173.5,-100.71 170,-90.71 166.5,-100.71 173.5,-100.71"/>
</g>
<!-- irox_types -->
<g id="node9" class="node">
<title>irox_types</title>
<ellipse fill="none" stroke="black" cx="194" cy="-443.58" rx="74.49" ry="45.01"/>
<text text-anchor="start" x="164.95" y="-457.98" font-family="Times New Roman,serif" font-weight="bold" font-size="14.00">irox_types</text>
<polygon fill="#555555" stroke="transparent" points="150,-433.58 150,-451.58 189,-451.58 189,-433.58 150,-433.58"/>
<text text-anchor="start" x="152" y="-438.78" font-family="sans-serif" font-size="12.00" fill="#ffffff"> no_std</text>
<polygon fill="#97ca00" stroke="transparent" points="189,-433.58 189,-451.58 239,-451.58 239,-433.58 189,-433.58"/>
<text text-anchor="start" x="191" y="-438.78" font-family="sans-serif" font-size="12.00" fill="#ffffff">yes</text>
<polygon fill="#555555" stroke="transparent" points="150,-415.58 150,-433.58 189,-433.58 189,-415.58 150,-415.58"/>
<text text-anchor="start" x="160.68" y="-420.78" font-family="sans-serif" font-size="12.00" fill="#ffffff"> alloc</text>
<polygon fill="#9f9f9f" stroke="transparent" points="189,-415.58 189,-433.58 239,-433.58 239,-415.58 189,-415.58"/>
<text text-anchor="start" x="191" y="-420.78" font-family="sans-serif" font-size="12.00" fill="#ffffff">required</text>
</g>
<!-- irox_types&#45;&gt;irox_tools -->
<g id="edge14" class="edge">
<title>irox_types&#45;&gt;irox_tools</title>
<path fill="none" stroke="black" d="M221.81,-401.18C229.74,-388.62 238.09,-374.63 245,-361.33 265.11,-322.61 254.47,-303.82 283,-270.82 309.63,-240.01 348.55,-216.18 381.45,-199.84"/>
<polygon fill="black" stroke="black" points="383.08,-202.94 390.55,-195.44 380.03,-196.64 383.08,-202.94"/>
</g>
<!-- irox_types&#45;&gt;irox_bits -->
<g id="edge16" class="edge">
<title>irox_types&#45;&gt;irox_bits</title>
<path fill="none" stroke="black" stroke-dasharray="5,2" d="M140.41,-412.2C122.56,-399.06 104.74,-381.93 95,-361.33 53.24,-273.03 102.68,-159.5 138.79,-95.62"/>
<polygon fill="black" stroke="black" points="142.04,-96.98 144,-86.57 135.98,-93.49 142.04,-96.98"/>
<text text-anchor="middle" x="118.2" y="-240.22" font-family="Times New Roman,serif" font-size="14.00">feature[bits]</text>
</g>
<!-- irox_types&#45;&gt;irox_enums -->
<g id="edge15" class="edge">
<title>irox_types&#45;&gt;irox_enums</title>
<path fill="none" stroke="black" d="M262.66,-425.85C303.49,-416.47 356.44,-405.29 404,-398.33 600.37,-369.59 658.62,-417.39 849,-361.33 856.38,-359.16 863.85,-356.28 871.14,-353.04"/>
<polygon fill="black" stroke="black" points="872.68,-356.19 880.24,-348.77 869.7,-349.85 872.68,-356.19"/>
</g>
<!-- irox_imagery -->
<g id="node10" class="node">
<title>irox_imagery</title>
<ellipse fill="none" stroke="black" cx="375" cy="-714.4" rx="68.68" ry="45.01"/>
<text text-anchor="start" x="337.79" y="-728.8" font-family="Times New Roman,serif" font-weight="bold" font-size="14.00">irox_imagery</text>
<polygon fill="#555555" stroke="transparent" points="335,-704.4 335,-722.4 366,-722.4 366,-704.4 335,-704.4"/>
<text text-anchor="start" x="347" y="-709.6" font-family="sans-serif" font-size="12.00" fill="#ffffff"> std</text>
<polygon fill="#007ec6" stroke="transparent" points="366,-704.4 366,-722.4 416,-722.4 416,-704.4 366,-704.4"/>
<text text-anchor="start" x="368" y="-709.6" font-family="sans-serif" font-size="12.00" fill="#ffffff">feature</text>
<polygon fill="#555555" stroke="transparent" points="335,-686.4 335,-704.4 366,-704.4 366,-686.4 335,-686.4"/>
<text text-anchor="start" x="337.68" y="-691.6" font-family="sans-serif" font-size="12.00" fill="#ffffff"> alloc</text>
<polygon fill="#9f9f9f" stroke="transparent" points="366,-686.4 366,-704.4 416,-704.4 416,-686.4 366,-686.4"/>
<text text-anchor="start" x="368" y="-691.6" font-family="sans-serif" font-size="12.00" fill="#ffffff">required</text>
</g>
<!-- irox_imagery&#45;&gt;irox_tools -->
<g id="edge17" class="edge">
<title>irox_imagery&#45;&gt;irox_tools</title>
<path fill="none" stroke="black" d="M443.1,-708.26C618.48,-694.11 1072,-651.37 1072,-587.89 1072,-587.89 1072,-587.89 1072,-315.07 1072,-260.83 1031.16,-250.94 979,-236.02 879.58,-207.58 612.75,-248.7 514,-218.02 507.87,-216.12 501.75,-213.53 495.83,-210.56"/>
<polygon fill="black" stroke="black" points="497.16,-207.3 486.7,-205.62 493.83,-213.46 497.16,-207.3"/>
</g>
<!-- irox_imagery&#45;&gt;irox_bits -->
<g id="edge18" class="edge">
<title>irox_imagery&#45;&gt;irox_bits</title>
<path fill="none" stroke="black" d="M307.52,-704.89C199.56,-689.37 0,-652 0,-587.89 0,-587.89 0,-587.89 0,-171.76 0,-117.94 55.84,-84.58 103.51,-65.92"/>
<polygon fill="black" stroke="black" points="104.79,-69.17 112.92,-62.38 102.33,-62.62 104.79,-69.17"/>
</g>
<!-- irox_imagery&#45;&gt;irox_units -->
<g id="edge19" class="edge">
<title>irox_imagery&#45;&gt;irox_units</title>
<path fill="none" stroke="black" d="M321.07,-686.03C300.87,-672.74 280.13,-654.71 269,-632.15 251.2,-596.07 261.76,-581.21 269,-541.64 280.34,-479.62 307.95,-412.5 328.65,-367.95"/>
<polygon fill="black" stroke="black" points="331.86,-369.34 332.95,-358.8 325.53,-366.36 331.86,-369.34"/>
</g>
<!-- irox_imagery&#45;&gt;irox_carto -->
<g id="edge20" class="edge">
<title>irox_imagery&#45;&gt;irox_carto</title>
<path fill="none" stroke="black" d="M441.61,-703.33C511.78,-691.4 624.71,-668.44 717,-632.15 723.43,-629.62 729.96,-626.64 736.39,-623.44"/>
<polygon fill="black" stroke="black" points="738.41,-626.33 745.68,-618.63 735.19,-620.12 738.41,-626.33"/>
</g>
<!-- irox_imagery&#45;&gt;irox_types -->
<g id="edge21" class="edge">
<title>irox_imagery&#45;&gt;irox_types</title>
<path fill="none" stroke="black" d="M310.46,-698.54C283.69,-689.2 254.59,-674.37 236,-651.15 201.62,-608.21 193.13,-544.5 191.99,-499.2"/>
<polygon fill="black" stroke="black" points="195.48,-498.91 191.84,-488.96 188.48,-499.01 195.48,-498.91"/>
</g>
<!-- irox_log -->
<g id="node11" class="node">
<title>irox_log</title>
<ellipse fill="none" stroke="black" cx="500" cy="-586.89" rx="55.72" ry="32.55"/>
<text text-anchor="start" x="476.78" y="-592.29" font-family="Times New Roman,serif" font-weight="bold" font-size="14.00">irox_log</text>
<polygon fill="#555555" stroke="transparent" points="469,-567.89 469,-585.89 491,-585.89 491,-567.89 469,-567.89"/>
<text text-anchor="start" x="472" y="-573.09" font-family="sans-serif" font-size="12.00" fill="#ffffff"> std</text>
<polygon fill="#007ec6" stroke="transparent" points="491,-567.89 491,-585.89 532,-585.89 532,-567.89 491,-567.89"/>
<text text-anchor="start" x="493" y="-573.09" font-family="sans-serif" font-size="12.00" fill="#ffffff">feature</text>
</g>
<!-- irox_imagery&#45;&gt;irox_log -->
<g id="edge22" class="edge">
<title>irox_imagery&#45;&gt;irox_log</title>
<path fill="none" stroke="black" d="M412.17,-676.09C429.02,-659.17 448.82,-639.28 465.36,-622.68"/>
<polygon fill="black" stroke="black" points="468.13,-624.86 472.7,-615.3 463.17,-619.92 468.13,-624.86"/>
</g>
<!-- irox_log&#45;&gt;irox_tools -->
<g id="edge32" class="edge">
<title>irox_log&#45;&gt;irox_tools</title>
<path fill="none" stroke="black" d="M497.3,-554.38C491.79,-492.88 478.07,-352.69 458,-236.02 457.52,-233.2 456.99,-230.33 456.43,-227.42"/>
<polygon fill="black" stroke="black" points="459.84,-226.64 454.43,-217.53 452.98,-228.02 459.84,-226.64"/>
</g>
<!-- irox_log&#45;&gt;irox_time -->
<g id="edge34" class="edge">
<title>irox_log&#45;&gt;irox_time</title>
<path fill="none" stroke="black" d="M521.07,-556.44C532.15,-541.33 546.17,-522.8 559.49,-506.84 564.15,-501.25 569.17,-495.49 574.22,-489.84"/>
<polygon fill="black" stroke="black" points="576.99,-491.99 581.1,-482.23 571.79,-487.3 576.99,-491.99"/>
<text text-anchor="middle" x="591.26" y="-511.04" font-family="Times New Roman,serif" font-size="14.00">feature[std]</text>
</g>
<!-- log -->
<g id="node17" class="node">
<title>log</title>
<polygon fill="none" stroke="black" points="467,-461.58 413,-461.58 413,-457.58 409,-457.58 409,-453.58 413,-453.58 413,-433.58 409,-433.58 409,-429.58 413,-429.58 413,-425.58 467,-425.58 467,-461.58"/>
<polyline fill="none" stroke="black" points="413,-457.58 417,-457.58 417,-453.58 413,-453.58 "/>
<polyline fill="none" stroke="black" points="413,-433.58 417,-433.58 417,-429.58 413,-429.58 "/>
<text text-anchor="middle" x="440" y="-439.38" font-family="Times New Roman,serif" font-size="14.00">log</text>
</g>
<!-- irox_log&#45;&gt;log -->
<g id="edge33" class="edge">
<title>irox_log&#45;&gt;log</title>
<path fill="none" stroke="black" d="M486.98,-555.23C476.37,-530.23 461.52,-495.27 451.38,-471.38"/>
<polygon fill="black" stroke="black" points="454.47,-469.71 447.34,-461.88 448.03,-472.45 454.47,-469.71"/>
</g>
<!-- irox_stats -->
<g id="node12" class="node">
<title>irox_stats</title>
<ellipse fill="none" stroke="black" cx="352" cy="-586.89" rx="74.49" ry="45.01"/>
<text text-anchor="start" x="325.28" y="-601.29" font-family="Times New Roman,serif" font-weight="bold" font-size="14.00">irox_stats</text>
<polygon fill="#555555" stroke="transparent" points="308,-576.89 308,-594.89 347,-594.89 347,-576.89 308,-576.89"/>
<text text-anchor="start" x="310" y="-582.09" font-family="sans-serif" font-size="12.00" fill="#ffffff"> no_std</text>
<polygon fill="#97ca00" stroke="transparent" points="347,-576.89 347,-594.89 397,-594.89 397,-576.89 347,-576.89"/>
<text text-anchor="start" x="349" y="-582.09" font-family="sans-serif" font-size="12.00" fill="#ffffff">yes</text>
<polygon fill="#555555" stroke="transparent" points="308,-558.89 308,-576.89 347,-576.89 347,-558.89 308,-558.89"/>
<text text-anchor="start" x="318.68" y="-564.09" font-family="sans-serif" font-size="12.00" fill="#ffffff"> alloc</text>
<polygon fill="#9f9f9f" stroke="transparent" points="347,-558.89 347,-576.89 397,-576.89 397,-558.89 347,-558.89"/>
<text text-anchor="start" x="349" y="-564.09" font-family="sans-serif" font-size="12.00" fill="#ffffff">required</text>
</g>
<!-- irox_stats&#45;&gt;irox_tools -->
<g id="edge23" class="edge">
<title>irox_stats&#45;&gt;irox_tools</title>
<path fill="none" stroke="black" d="M362.88,-541.83C374.69,-494.98 393.28,-424.16 404,-398.33 411.25,-380.86 419.26,-379.34 425,-361.33 438.77,-318.15 443.2,-266.8 444.37,-228.75"/>
<polygon fill="black" stroke="black" points="447.87,-228.47 444.62,-218.39 440.88,-228.31 447.87,-228.47"/>
</g>
<!-- irox_stats&#45;&gt;irox_bits -->
<g id="edge24" class="edge">
<title>irox_stats&#45;&gt;irox_bits</title>
<path fill="none" stroke="black" d="M277.59,-583.82C184.73,-576.82 38,-549.2 38,-444.58 38,-444.58 38,-444.58 38,-171.76 38,-129.06 74.74,-96.48 109.45,-75.23"/>
<polygon fill="black" stroke="black" points="111.37,-78.16 118.21,-70.07 107.82,-72.13 111.37,-78.16"/>
</g>
<!-- irox_stats&#45;&gt;irox_units -->
<g id="edge25" class="edge">
<title>irox_stats&#45;&gt;irox_units</title>
<path fill="none" stroke="black" d="M352.33,-541.5C352.68,-494.91 353.22,-421.59 353.59,-371.53"/>
<polygon fill="black" stroke="black" points="357.09,-371.56 353.67,-361.53 350.09,-371.5 357.09,-371.56"/>
</g>
<!-- irox_stats&#45;&gt;irox_time -->
<g id="edge26" class="edge">
<title>irox_stats&#45;&gt;irox_time</title>
<path fill="none" stroke="black" d="M407.23,-556.44C450.37,-533.44 510.31,-501.48 555.07,-477.61"/>
<polygon fill="black" stroke="black" points="556.92,-480.59 564.1,-472.79 553.63,-474.41 556.92,-480.59"/>
</g>
<!-- irox_stats&#45;&gt;irox_types -->
<g id="edge27" class="edge">
<title>irox_stats&#45;&gt;irox_types</title>
<path fill="none" stroke="black" d="M310.9,-549.13C290.04,-530.48 264.57,-507.7 242.73,-488.16"/>
<polygon fill="black" stroke="black" points="244.96,-485.46 235.17,-481.4 240.29,-490.68 244.96,-485.46"/>
</g>
<!-- irox_structs -->
<g id="node13" class="node">
<title>irox_structs</title>
<ellipse fill="none" stroke="black" cx="591" cy="-172.76" rx="67.76" ry="45.01"/>
<text text-anchor="start" x="557.95" y="-187.16" font-family="Times New Roman,serif" font-weight="bold" font-size="14.00">irox_structs</text>
<polygon fill="#555555" stroke="transparent" points="551,-162.76 551,-180.76 590,-180.76 590,-162.76 551,-162.76"/>
<text text-anchor="start" x="553" y="-167.96" font-family="sans-serif" font-size="12.00" fill="#ffffff"> no_std</text>
<polygon fill="#97ca00" stroke="transparent" points="590,-162.76 590,-180.76 631,-180.76 631,-162.76 590,-162.76"/>
<text text-anchor="start" x="592" y="-167.96" font-family="sans-serif" font-size="12.00" fill="#ffffff">yes</text>
<polygon fill="#555555" stroke="transparent" points="551,-144.76 551,-162.76 590,-162.76 590,-144.76 551,-144.76"/>
<text text-anchor="start" x="561.68" y="-149.96" font-family="sans-serif" font-size="12.00" fill="#ffffff"> alloc</text>
<polygon fill="#007ec6" stroke="transparent" points="590,-144.76 590,-162.76 631,-162.76 631,-144.76 590,-144.76"/>
<text text-anchor="start" x="592" y="-149.96" font-family="sans-serif" font-size="12.00" fill="#ffffff">feature</text>
</g>
<!-- irox_structs&#45;&gt;irox_bits -->
<g id="edge28" class="edge">
<title>irox_structs&#45;&gt;irox_bits</title>
<path fill="none" stroke="black" d="M542.61,-140.76C533.66,-135.85 524.22,-131.18 515,-127.51 423.47,-91.03 311.47,-68.39 240.41,-56.56"/>
<polygon fill="black" stroke="black" points="240.67,-53.05 230.23,-54.89 239.53,-59.96 240.67,-53.05"/>
</g>
<!-- irox_build_rs -->
<g id="node14" class="node">
<title>irox_build_rs</title>
<ellipse fill="none" stroke="black" cx="641" cy="-586.89" rx="67.35" ry="32.55"/>
<text text-anchor="start" x="603.78" y="-592.29" font-family="Times New Roman,serif" font-weight="bold" font-size="14.00">irox_build_rs</text>
<polygon fill="#555555" stroke="transparent" points="602,-567.89 602,-585.89 627,-585.89 627,-567.89 602,-567.89"/>
<text text-anchor="start" x="608" y="-573.09" font-family="sans-serif" font-size="12.00" fill="#ffffff"> std</text>
<polygon fill="#9f9f9f" stroke="transparent" points="627,-567.89 627,-585.89 681,-585.89 681,-567.89 627,-567.89"/>
<text text-anchor="start" x="629" y="-573.09" font-family="sans-serif" font-size="12.00" fill="#ffffff">required</text>
</g>
<!-- irox_build_rs&#45;&gt;irox_time -->
<g id="edge29" class="edge">
<title>irox_build_rs&#45;&gt;irox_time</title>
<path fill="none" stroke="black" d="M635.61,-554.18C632.84,-537.83 629.37,-517.44 626.19,-498.7"/>
<polygon fill="black" stroke="black" points="629.63,-498.05 624.51,-488.78 622.73,-499.23 629.63,-498.05"/>
<text text-anchor="middle" x="661.26" y="-511.04" font-family="Times New Roman,serif" font-size="14.00">feature[std]</text>
</g>
<!-- irox_csv -->
<g id="node15" class="node">
<title>irox_csv</title>
<ellipse fill="none" stroke="black" cx="610" cy="-316.07" rx="62.45" ry="32.55"/>
<text text-anchor="start" x="585.89" y="-321.47" font-family="Times New Roman,serif" font-weight="bold" font-size="14.00">irox_csv</text>
<polygon fill="#555555" stroke="transparent" points="574,-297.07 574,-315.07 596,-315.07 596,-297.07 574,-297.07"/>
<text text-anchor="start" x="577" y="-302.27" font-family="sans-serif" font-size="12.00" fill="#ffffff"> std</text>
<polygon fill="#9f9f9f" stroke="transparent" points="596,-297.07 596,-315.07 646,-315.07 646,-297.07 596,-297.07"/>
<text text-anchor="start" x="598" y="-302.27" font-family="sans-serif" font-size="12.00" fill="#ffffff">required</text>
</g>
<!-- irox_csv&#45;&gt;irox_tools -->
<g id="edge30" class="edge">
<title>irox_csv&#45;&gt;irox_tools</title>
<path fill="none" stroke="black" d="M584.9,-286.27C570.67,-270.65 552.12,-251.44 534,-236.02 522.95,-226.61 510.48,-217.28 498.43,-208.81"/>
<polygon fill="black" stroke="black" points="500.38,-205.91 490.17,-203.1 496.4,-211.67 500.38,-205.91"/>
</g>
<!-- irox_dot -->
<g id="node16" class="node">
<title>irox_dot</title>
<ellipse fill="none" stroke="black" cx="739" cy="-172.76" rx="62.45" ry="32.55"/>
<text text-anchor="start" x="715.28" y="-178.16" font-family="Times New Roman,serif" font-weight="bold" font-size="14.00">irox_dot</text>
<polygon fill="#555555" stroke="transparent" points="703,-153.76 703,-171.76 725,-171.76 725,-153.76 703,-153.76"/>
<text text-anchor="start" x="706" y="-158.96" font-family="sans-serif" font-size="12.00" fill="#ffffff"> std</text>
<polygon fill="#9f9f9f" stroke="transparent" points="725,-153.76 725,-171.76 775,-171.76 775,-153.76 725,-153.76"/>
<text text-anchor="start" x="727" y="-158.96" font-family="sans-serif" font-size="12.00" fill="#ffffff">required</text>
</g>
<!-- irox_dot&#45;&gt;irox_bits -->
<g id="edge31" class="edge">
<title>irox_dot&#45;&gt;irox_bits</title>
<path fill="none" stroke="black" d="M703.59,-145.88C692.64,-138.94 680.24,-132.11 668,-127.51 522.87,-72.96 340.38,-55 241.56,-49.11"/>
<polygon fill="black" stroke="black" points="241.57,-45.6 231.39,-48.53 241.17,-52.59 241.57,-45.6"/>
</g>
</g>
</svg>
